<svg version="1.1" viewBox="0 0 511 511" fill="none" stroke="none" stroke-linecap="square" stroke-miterlimit="10"
  xmlns:xlink="http://www.w3.org/1999/xlink"
  xmlns="http://www.w3.org/2000/svg">
  <clipPath id="p.0">
    <path d="m0 0l511.68765 0l0 511.68765l-511.68765 0l0 -511.68765z" clip-rule="nonzero"/>
  </clipPath>
  <g clip-path="url(#p.0)">
    <path fill="#212737" d="m-0.001312336 255.84383l0 0c0 -141.29791 114.54459 -255.84251 255.84251 -255.84251l0 0c67.85365 0 132.9282 26.95476 180.90797 74.93454c47.979797 47.979782 74.93454 113.05432 74.93454 180.90797l0 0c0 141.29793 -114.544586 255.84251 -255.84251 255.84251l0 0c-141.29791 0 -255.84251 -114.544586 -255.84251 -255.84251z" fill-rule="evenodd"/>
    <path fill="#f06538" d="m284.35028 255.84251l120.18384 0l0 0c15.744415 0 28.507782 12.88533 28.507782 28.780167c0 15.894836 -12.763367 28.780151 -28.507782 28.780151l-120.18384 0l0 0c-15.744385 0 -28.507767 -12.885315 -28.507767 -28.780151c0 -15.894836 12.763382 -28.780167 28.507767 -28.780167z" fill-rule="evenodd"/>
    <path fill="#efefef" d="m457.45013 255.80975l0 0c0.01638794 97.09039 -69.171265 180.40204 -164.61316 198.21735c-95.44191 17.815308 -190.0255 -34.926605 -225.03584 -125.484955c-35.010345 -90.55838 -0.5019226 -193.20793 82.10338 -244.22662c82.6053 -51.01869 189.84146 -35.91342 255.13919 35.938858l-42.25937 38.404358l0 0c-46.802795 -51.50084 -123.66539 -62.32769 -182.87357 -25.759537c-59.208176 36.56816 -83.94244 110.14325 -58.84842 175.05188c25.09401 64.9086 92.88774 102.71188 161.29669 89.9426c68.408936 -12.769318 117.99988 -72.483765 117.98813 -142.07426z" fill-rule="evenodd"/>
  </g>
</svg>