<svg xmlns="http://www.w3.org/2000/svg" style="display: none;">

    <symbol id="icon-code" viewBox="0 0 512 512">
      <path d="m158 400l-14 14c-2 2-4 3-7 3-2 0-5-1-6-3l-134-133c-1-2-2-4-2-7 0-2 1-4 2-6l134-133c1-2 4-3 6-3 3 0 5 1 7 3l14 14c2 2 3 4 3 6 0 3-1 5-3 7l-112 112 112 113c2 1 3 4 3 6 0 3-1 5-3 7z m169-305l-107 369c0 2-2 4-4 5-2 2-5 2-7 1l-18-5c-2-1-4-2-5-4-1-2-2-5-1-7l107-369c0-3 2-4 4-6 2-1 5-1 7 0l18 4c2 1 4 3 5 5 1 2 2 4 1 7z m188 186l-134 133c-1 2-4 3-6 3-3 0-5-1-7-3l-14-14c-2-2-3-4-3-7 0-2 1-5 3-6l112-113-112-112c-2-2-3-4-3-7 0-2 1-4 3-6l14-14c2-2 4-3 7-3 2 0 5 1 6 3l134 133c1 2 2 4 2 6 0 3-1 5-2 7z"/>
    </symbol>

    <symbol id="icon-github-square" viewBox="0 0 512 512">
      <path d="m149 386c-1 2-3 2-6-1-2-2-2-3-1-5 2-2 4-1 6 1 2 2 3 4 1 5z m-12-17c2 2 2 4 0 5-1 1-3 1-5-2-1-2-1-4 0-5 2-1 4-1 5 2z m-17-17c-1 1-2 1-4 0-2-1-3-2-2-3 1-1 2-1 4-1 2 1 2 2 2 4z m9 9c-2 2-3 1-5 0-2-3-2-4-1-5 2-1 3-1 5 1 2 2 2 3 1 4z m36 32c0 3-2 3-5 2-3-1-4-2-4-4 1-2 3-3 6-2 3 1 4 2 3 4z m18 2c0 2-1 3-4 3-3 0-5-1-5-3 0-2 2-3 5-3 3-1 4 0 4 3z m17-3c0 2-1 3-4 4-3 1-5 0-5-2-1-3 1-4 4-5 3 0 5 1 5 3z m275-273l0 274c0 23-8 42-24 58-16 16-35 24-58 24l-64 0c-3 0-5 0-7 0-1 0-3-1-5-1-3-1-4-2-5-4-1-2-1-5-1-8l0-69c0-18-5-32-15-40 11-1 20-3 29-5 9-3 18-6 27-11 9-6 17-12 23-19 6-8 11-18 15-30 4-13 6-27 6-43 0-23-8-43-23-59 7-18 7-37-2-59-5-1-13 0-23 4-10 3-19 8-26 12l-11 7c-18-5-36-7-55-7-19 0-37 2-55 7-3-2-7-5-12-8-5-3-13-6-24-11-11-4-19-5-24-4-9 22-9 41-2 59-15 16-23 36-23 59 0 16 2 30 6 42 4 13 9 23 15 30 6 8 14 14 23 20 9 5 18 8 27 11 8 2 18 4 29 5-8 7-12 17-14 29-4 2-8 4-13 5-4 1-10 1-16 1-6 0-13-2-19-6-6-4-11-10-16-18-3-6-8-11-14-15-5-4-10-6-14-7l-5-1c-4 0-7 1-9 2-1 1-2 2-1 3 0 1 1 3 2 4 2 1 3 2 4 3l2 2c4 2 8 5 13 11 4 5 7 10 9 14l2 7c3 7 7 13 13 17 6 5 12 8 19 9 7 1 14 2 20 2 6 0 12 0 16-1l6-1c0 7 0 17 1 29 0 13 0 19 0 20 0 4-1 7-3 9-3 2-5 4-7 4-2 0-5 0-9 0l-64 0c-23 0-42-8-58-24-16-16-24-35-24-58l0-274c0-23 8-42 24-58 16-16 35-24 58-24l274 0c23 0 42 8 58 24 16 16 24 35 24 58z"/>
    </symbol>

    <symbol id="icon-linkedin-square" viewBox="0 0 512 512">
      <path d="m104 404l66 0 0-198-66 0z m71-259c-1-10-4-19-11-25-6-6-15-10-26-10-11 0-20 4-27 10-7 6-11 15-11 25 0 9 4 17 10 24 7 7 16 10 27 10l0 0c11 0 20-3 27-10 7-7 11-15 11-24z m167 259l66 0 0-114c0-29-7-51-21-66-14-15-32-23-55-23-26 0-46 11-60 34l1 0 0-29-66 0c0 12 0 78 0 198l66 0 0-111c0-7 0-12 2-16 2-7 7-12 12-17 6-5 13-7 22-7 22 0 33 15 33 45z m133-285l0 274c0 23-8 42-24 58-16 16-35 24-58 24l-274 0c-23 0-42-8-58-24-16-16-24-35-24-58l0-274c0-23 8-42 24-58 16-16 35-24 58-24l274 0c23 0 42 8 58 24 16 16 24 35 24 58z"/>
    </symbol>

    <symbol id="icon-envelope" viewBox="0 0 512 512">
      <path d="m512 203l0 227c0 12-4 23-13 32-9 9-20 13-33 13l-420 0c-13 0-24-4-33-13-9-9-13-20-13-32l0-227c8 9 18 17 29 25 69 47 116 79 142 98 11 8 20 15 26 19 7 4 16 9 27 14 12 4 22 7 32 7l0 0c10 0 20-3 32-7 11-5 20-10 27-14 6-4 15-11 26-19 33-23 80-56 142-98 11-8 21-16 29-25z m0-84c0 15-5 29-14 43-9 14-21 25-35 35-71 50-116 81-134 93-1 1-6 4-12 9-6 4-11 8-15 11-4 2-9 5-15 9-6 3-11 6-16 8-6 1-10 2-15 2l0 0c-5 0-9-1-15-2-5-2-10-5-16-8-6-4-11-7-15-9-4-3-9-7-15-11-6-5-11-8-12-9-18-12-43-30-75-52-33-23-52-36-59-41-12-8-23-19-33-33-11-14-16-27-16-39 0-15 4-27 12-37 8-10 19-15 34-15l420 0c13 0 23 5 32 14 9 9 14 19 14 32z"/>
    </symbol>

    <symbol id="icon-graduation-cap" viewBox="0 0 512 512">
      <path d="m434 239l5 90c1 13-7 25-24 37-16 11-38 20-67 26-28 7-59 10-92 10-33 0-64-3-92-10-29-6-51-15-67-26-17-12-25-24-24-37l5-90 164 52c4 1 9 2 14 2 5 0 10-1 14-2z m151-93c0 5-2 8-6 9l-320 101c-1 0-2 0-3 0-1 0-2 0-3 0l-186-59c-8 6-15 17-20 32-6 14-9 31-10 51 12 7 18 17 18 31 0 13-6 23-17 30l17 124c0 3-1 5-2 7-2 2-4 3-7 3l-55 0c-3 0-5-1-7-3-2-2-3-4-2-7l16-124c-11-7-16-17-16-30 0-14 6-25 18-32 2-39 12-71 28-94l-95-30c-4-1-6-4-6-9 0-4 2-7 6-9l320-100c1 0 2 0 3 0 1 0 2 0 3 0l320 100c4 2 6 5 6 9z"/>
    </symbol>

    <symbol id="icon-stack-overflow" viewBox="0 0 512 512">
      <path d="m320 400l0 43-202 1 0-43z m69-99l0 201 0 10 0 0-324 0-10 0 0 0 0-211 34 0 0 177 266 0 0-177z m-265 26l201 18-4 43-201-19z m19-91l195 53-11 41-195-52z m47-99l174 102-22 38-174-103z m103-95l113 167-35 24-114-166z m129-42l35 199-43 8-35-200z"/>
    </symbol>

    <symbol id="icon-briefcase" viewBox="0 0 512 512">
      <path d="m183 73l146 0 0-36-146 0z m329 183l0 137c0 13-4 23-13 32-9 9-20 14-33 14l-420 0c-13 0-24-5-33-14-9-9-13-19-13-32l0-137 192 0 0 46c0 5 2 9 5 13 4 3 8 5 13 5l92 0c5 0 9-2 13-5 3-4 5-8 5-13l0-46z m-219 0l0 37-74 0 0-37z m219-137l0 110-512 0 0-110c0-13 4-23 13-32 9-9 20-14 33-14l100 0 0-46c0-7 3-14 8-19 6-5 12-8 20-8l164 0c8 0 14 3 20 8 5 5 8 12 8 19l0 46 100 0c13 0 24 5 33 14 9 9 13 19 13 32z"/>
    </symbol>

    <symbol id="icon-stack-exchange" viewBox="0 0 512 512">
      <path d="m433 358l0 19c0 16-6 30-17 41-11 11-24 17-39 17l-16 0-75 77 0-77-151 0c-15 0-28-6-39-17-11-11-17-25-17-41l0-19z m0-93l0 73-354 0 0-73z m0-94l0 73-354 0 0-73z m0-40l0 19-354 0 0-19c0-16 6-30 17-41 11-11 24-17 39-17l242 0c15 0 28 6 39 17 11 11 17 25 17 41z"/>
    </symbol>

    <symbol id="icon-line-chart" viewBox="0 0 512 512">
      <path d="m549 439l0 36-586 0 0-438 37 0 0 402z m-37-357l0 125c0 4-2 6-6 8-3 2-7 1-10-2l-34-35-181 181c-2 2-4 3-7 3-2 0-4-1-6-3l-67-66-119 118-55-54 168-168c1-1 4-2 6-2 3 0 5 1 7 2l66 67 133-133-35-34c-3-3-3-7-2-10 2-4 5-6 9-6l124 0c3 0 5 1 6 3 2 1 3 4 3 6z"/>
    </symbol>

    <symbol id="icon-angle-up" viewBox="0 0 512 512">
      <path d="m399 338c0 3-1 5-3 7l-15 14c-1 2-4 3-6 3-3 0-5-1-7-3l-112-112-112 112c-2 2-4 3-7 3-2 0-5-1-6-3l-15-14c-2-2-3-4-3-7 0-2 1-4 3-6l133-133c2-2 5-3 7-3 2 0 5 1 7 3l133 133c2 2 3 4 3 6z"/>
    </symbol>

    <symbol id="icon-angle-double-up" viewBox="0 0 512 512">
      <path d="m399 375c0 2-1 5-3 6l-15 15c-1 2-4 3-6 3-3 0-5-1-7-3l-112-113-112 113c-2 2-4 3-7 3-2 0-5-1-6-3l-15-15c-2-1-3-4-3-6 0-3 1-5 3-7l133-133c2-2 5-3 7-3 2 0 5 1 7 3l133 133c2 2 3 4 3 7z m0-110c0 3-1 5-3 7l-15 14c-1 2-4 3-6 3-3 0-5-1-7-3l-112-112-112 112c-2 2-4 3-7 3-2 0-5-1-6-3l-15-14c-2-2-3-4-3-7 0-2 1-5 3-6l133-134c2-1 5-2 7-2 2 0 5 1 7 2l133 134c2 1 3 4 3 6z"/>
    </symbol>

</svg>
